<?xml version="1.0" encoding="UTF-8" standalone="no"?>
<!-- Created with Inkscape (http://www.inkscape.org/) -->

<svg
   xmlns:dc="http://purl.org/dc/elements/1.1/"
   xmlns:cc="http://creativecommons.org/ns#"
   xmlns:rdf="http://www.w3.org/1999/02/22-rdf-syntax-ns#"
   xmlns:svg="http://www.w3.org/2000/svg"
   xmlns="http://www.w3.org/2000/svg"
   version="1.1"
   width="100%"
   height="100%"
   viewBox="0 0 299.99999 67.309446"
   id="Lag_1"
   xml:space="preserve"><metadata
     id="metadata3244"><rdf:RDF><cc:Work
         rdf:about=""><dc:format>image/svg+xml</dc:format><dc:type
           rdf:resource="http://purl.org/dc/dcmitype/StillImage" /><dc:title></dc:title></cc:Work></rdf:RDF></metadata><defs
     id="defs3242" /><style
     type="text/css"
     id="style3168" /><g
     transform="matrix(1.0149193,0,0,1.0149193,-196.58987,-211.76291)"
     id="g3170"
     style="fill:#b22a2e;fill-opacity:1"><g
       id="g3172"
       style="fill:#b22a2e;fill-opacity:1"><path
         d="m 213.39,252 v -17.91 h -8.74 V 252 H 193.7 v -42.61 h 10.94 v 15.65 h 8.74 v -15.65 h 10.94 V 252 h -10.93 z"
         id="path3174"
         style="fill:#b22a2e;fill-opacity:1" /><path
         d="m 233.26,231.76 c 0,-15.16 8.31,-23.11 19.56,-23.11 14.49,0 18.71,11.06 18.71,20.42 0,12.23 -3.85,23.66 -19.07,23.66 -12.36,0 -19.2,-8.19 -19.2,-20.97 z m 26.04,-1.34 c 0,-10.64 -2.08,-13.2 -6.79,-13.2 -4.95,0 -7.03,5.2 -7.03,13.33 0,10.88 2.63,13.57 7.15,13.57 4.65,-0.01 6.67,-2.76 6.67,-13.7 z"
         id="path3176"
         style="fill:#b22a2e;fill-opacity:1" /><path
         d="m 298.6,252 h -9.84 l -14.49,-42.61 h 12.04 l 5.38,16.93 c 0.86,2.63 1.34,4.22 2.02,8.01 h 0.06 c 0.67,-3.42 1.53,-6.11 2.26,-8.31 l 6.05,-16.63 h 11.55 L 298.6,252 z"
         id="path3178"
         style="fill:#b22a2e;fill-opacity:1" /></g><path
       d="m 352.79,252 -1.04,-17.18 c -0.18,-2.69 -0.31,-4.89 -0.31,-8.56 h -0.06 c -0.49,3.61 -0.79,5.75 -1.47,8.01 l -5.2,17.73 h -9.29 l -4.52,-17.24 c -0.61,-2.38 -1.1,-4.77 -1.41,-8.56 h -0.06 c 0,3.79 0,6.11 -0.18,8.8 l -0.85,17 h -11 l 4.16,-42.61 h 13.39 l 4.16,16.87 c 0.61,2.38 1.04,4.65 1.41,8.07 h 0.06 c 0.37,-3.24 0.86,-5.32 1.65,-8.68 l 4.34,-16.26 h 12.96 l 3.91,42.61 h -10.65 z"
       id="path3180"
       style="fill:#b22a2e;fill-opacity:1" /><g
       id="g3182"
       style="fill:#b22a2e;fill-opacity:1"><path
         d="m 433.84,252 -7.52,-14.79 c -1.1,-2.2 -2.38,-5.26 -3.3,-8.01 0.24,1.65 0.61,5.56 0.61,10.82 V 252 h -10.39 v -42.61 h 10.51 l 7.76,14.61 c 1.22,2.26 2.51,5.26 3.54,8.13 -0.31,-2.51 -0.37,-6.72 -0.37,-9.54 v -13.2 h 10.39 V 252 h -11.23 z"
         id="path3184"
         style="fill:#b22a2e;fill-opacity:1" /><path
         d="m 484.46,246.86 c -2.69,3.24 -6.11,5.13 -11.86,5.13 h -15.47 v -42.61 h 15.04 c 2.93,0 6.72,0.24 10.15,2.63 4.83,3.36 6.97,9.23 6.97,17.91 0,6.61 -0.98,12.36 -4.83,16.94 z m -13.02,-28.48 h -3.36 v 24.51 h 3.67 c 3.06,0 5.5,-1.53 5.5,-13.33 0,-9.9 -2.51,-11.18 -5.81,-11.18 z"
         id="path3186"
         style="fill:#b22a2e;fill-opacity:1" /></g><path
       d="m 408,252 h -11.55 l -6.05,-16.63 c -0.73,-2.2 -1.59,-4.89 -2.26,-8.31 h -0.06 c -0.67,3.79 -1.16,5.38 -2.02,8.01 L 380.68,252 h -12.04 l 14.49,-42.61 h 9.84 L 408,252 z"
       id="path3188"
       style="fill:#b22a2e;fill-opacity:1" /></g><g
     transform="matrix(1.0149193,0,0,1.0149193,-196.58987,-211.76291)"
     id="g3190"><path
       d="m 193.77,261.3 h 1.6 v 12.03 h 5.28 l -0.21,1.35 h -6.67 V 261.3 z"
       id="path3192" /><path
       d="m 203.69,261.3 h 1.56 v 13.38 h -1.56 V 261.3 z"
       id="path3194" /><path
       d="m 209.62,261.36 h 7.04 l -0.25,1.33 h -5.17 v 4.33 h 4.29 v 1.31 h -4.29 v 6.36 h -1.62 v -13.33 z"
       id="path3196" /><path
       d="m 218.16,261.3 h 8.85 l -0.1,1.35 h -3.63 v 12.03 h -1.54 v -12.03 h -3.59 v -1.35 z"
       id="path3198" /><path
       d="m 230.09,261.3 h 1.56 v 13.38 h -1.56 V 261.3 z"
       id="path3200" /><path
       d="m 235.92,261.34 h 1.85 l 4.45,8.52 c 0.49,0.96 1.25,2.79 1.25,2.79 0,0 -0.16,-2.3 -0.18,-4.06 l -0.06,-7.25 h 1.58 v 13.34 h -1.68 l -4.29,-8.17 c -0.62,-1.21 -1.25,-2.48 -1.52,-3.2 0.1,1.13 0.16,2.3 0.18,3.63 l 0.08,7.74 h -1.66 v -13.34 z"
       id="path3202" /><path
       d="m 257.51,262.51 -0.72,0.99 c -1.09,-0.74 -1.87,-1.03 -2.91,-1.03 -1.56,0 -2.79,0.72 -3.33,2.26 -0.35,0.99 -0.53,2.13 -0.53,3.39 0,1.75 0.33,3.18 0.94,4.06 0.6,0.88 1.97,1.42 3.24,1.42 0.84,0 1.56,-0.18 2.13,-0.53 V 269 h -2.69 l -0.31,-1.33 h 4.5 v 6.24 c -0.96,0.62 -2.4,1.01 -3.76,1.01 -1.68,0 -3.1,-0.58 -4.11,-1.68 -1.13,-1.23 -1.66,-2.89 -1.66,-5.19 0,-2.55 0.66,-4.39 2.07,-5.62 0.96,-0.86 2.11,-1.27 3.49,-1.27 1.41,0.02 2.64,0.47 3.65,1.35 z"
       id="path3204" /><path
       d="m 277.23,268.22 1.35,-0.04 c 0,1.05 -0.04,1.6 -0.12,2.13 -0.1,0.64 -0.27,1.27 -0.6,1.91 l 2.46,2.44 h -2.03 L 277,273.41 c -0.78,0.96 -2.26,1.56 -3.82,1.56 -0.94,0 -2.36,-0.25 -3.2,-0.9 -0.86,-0.66 -1.33,-1.64 -1.33,-2.71 0,-0.72 0.21,-1.38 0.64,-1.93 0.51,-0.64 1.29,-1.03 2.09,-1.46 -0.62,-0.55 -1.29,-1.29 -1.58,-1.81 -0.2,-0.41 -0.31,-0.8 -0.31,-1.19 0,-0.76 0.37,-1.64 1.03,-2.2 0.66,-0.57 1.52,-0.88 2.44,-0.88 0.99,0 2.09,0.39 2.71,0.94 0.57,0.53 0.88,1.25 0.88,2.07 0,0.57 -0.1,0.92 -0.37,1.35 -0.31,0.49 -0.76,0.92 -1.31,1.23 l -1.11,0.64 3.08,3.06 c 0.23,-0.37 0.29,-0.68 0.37,-1.54 0.02,-0.42 0.02,-1.42 0.02,-1.42 z m -4.94,0.55 c -1.33,0.62 -1.97,1.5 -1.97,2.71 0,0.88 0.49,1.62 1.29,1.99 0.45,0.21 0.94,0.31 1.6,0.31 1.31,0 2.44,-0.57 2.94,-1.25 l -3.86,-3.76 z m 0.59,-1.5 c 0.9,-0.43 1.54,-0.96 1.79,-1.46 0.12,-0.25 0.19,-0.62 0.19,-0.94 0,-1.09 -0.78,-1.87 -1.89,-1.87 -0.57,0 -1.03,0.19 -1.44,0.58 -0.25,0.25 -0.41,0.7 -0.41,1.19 0,0.64 0.21,1.01 0.9,1.7 0.25,0.25 0.58,0.56 0.86,0.8 z"
       id="path3206" /><path
       d="m 291.23,261.3 h 2.34 l 2.44,8.74 c 0.25,0.94 0.35,1.31 0.53,2.34 0.21,-1.13 0.31,-1.5 0.49,-2.18 l 2.52,-8.89 h 2.36 l 1.15,13.38 h -1.6 l -0.78,-9.81 c -0.06,-0.86 -0.1,-2.28 -0.1,-2.28 -0.14,0.66 -0.37,1.58 -0.53,2.11 l -2.87,9.98 h -1.36 l -2.65,-9.5 c -0.27,-1.01 -0.47,-1.68 -0.66,-2.61 0,0 -0.1,1.77 -0.16,2.59 l -0.74,9.52 h -1.54 l 1.16,-13.39 z"
       id="path3208" /><path
       d="m 310.98,261.07 c 2.32,0 3.57,1.23 4.21,2.18 0.84,1.25 1.21,2.81 1.21,4.95 0,2.57 -0.58,4.19 -1.95,5.44 -0.99,0.9 -2.01,1.29 -3.39,1.29 -1.64,0 -2.91,-0.66 -3.8,-1.7 -1.05,-1.21 -1.6,-3.02 -1.6,-5.3 0,-4.25 2.02,-6.86 5.32,-6.86 z m 0,1.28 c -1.25,0 -2.36,0.6 -2.87,1.56 -0.47,0.88 -0.68,2.03 -0.68,3.68 0,2.01 0.33,3.76 0.86,4.66 0.51,0.86 1.75,1.44 2.85,1.44 1.09,0 1.91,-0.39 2.5,-1.15 0.66,-0.84 0.98,-1.91 0.98,-4.11 0,-1.97 -0.2,-3.31 -0.64,-4.25 -0.48,-0.99 -1.46,-1.83 -3,-1.83 z"
       id="path3210" /><path
       d="m 318.04,261.3 h 1.74 l 2.83,8.58 c 0.39,1.17 0.72,2.59 0.78,2.98 0.08,-0.33 0.35,-1.35 0.82,-2.79 l 2.87,-8.77 h 1.64 l -4.58,13.38 h -1.58 l -4.52,-13.38 z"
       id="path3212" /><path
       d="m 331.53,261.3 h 1.56 v 13.38 h -1.56 V 261.3 z"
       id="path3214" /><path
       d="m 337.36,261.34 h 1.85 l 4.45,8.52 c 0.49,0.96 1.25,2.79 1.25,2.79 0,0 -0.16,-2.3 -0.17,-4.06 l -0.06,-7.25 h 1.58 v 13.34 h -1.68 l -4.29,-8.17 c -0.62,-1.21 -1.25,-2.48 -1.52,-3.2 0.1,1.13 0.16,2.3 0.18,3.63 l 0.08,7.74 h -1.66 v -13.34 z"
       id="path3216" /><path
       d="m 358.95,262.51 -0.72,0.99 c -1.09,-0.74 -1.87,-1.03 -2.91,-1.03 -1.56,0 -2.79,0.72 -3.33,2.26 -0.35,0.99 -0.53,2.13 -0.53,3.39 0,1.75 0.33,3.18 0.94,4.06 0.6,0.88 1.97,1.42 3.24,1.42 0.84,0 1.56,-0.18 2.12,-0.53 V 269 h -2.69 l -0.31,-1.33 h 4.5 v 6.24 c -0.96,0.62 -2.4,1.01 -3.76,1.01 -1.68,0 -3.1,-0.58 -4.11,-1.68 -1.13,-1.23 -1.66,-2.89 -1.66,-5.19 0,-2.55 0.66,-4.39 2.07,-5.62 0.96,-0.86 2.11,-1.27 3.49,-1.27 1.42,0.02 2.65,0.47 3.66,1.35 z"
       id="path3218" /><path
       d="m 368.66,261.3 h 8.85 l -0.1,1.35 h -3.63 v 12.03 h -1.54 v -12.03 h -3.59 v -1.35 z"
       id="path3220" /><path
       d="m 380.55,261.4 h 7.31 l -0.21,1.33 h -5.48 v 4.33 h 4.58 v 1.38 h -4.58 v 4.86 h 5.89 v 1.38 h -7.51 V 261.4 z"
       id="path3222" /><path
       d="m 399.61,262.22 -0.86,1.03 c -0.8,-0.58 -1.56,-0.84 -2.54,-0.84 -1.54,0 -2.65,0.8 -3.29,2.3 -0.39,0.9 -0.57,1.97 -0.57,3.55 0,1.29 0.12,2.05 0.43,2.83 0.68,1.68 2.07,2.46 3.59,2.46 0.99,0 1.75,-0.25 2.61,-0.86 l 0.86,1.11 c -1.07,0.7 -2.4,1.09 -3.72,1.09 -3.26,0 -5.5,-2.81 -5.5,-6.86 0,-3.98 2.38,-6.9 5.62,-6.9 1.28,-0.01 2.45,0.38 3.37,1.09 z"
       id="path3224" /><path
       d="m 402.57,261.3 h 1.56 v 5.6 h 5.64 v -5.6 h 1.6 v 13.38 h -1.6 v -6.47 h -5.64 v 6.47 h -1.56 V 261.3 z"
       id="path3226" /><path
       d="m 415.54,261.34 h 1.85 l 4.45,8.52 c 0.49,0.96 1.25,2.79 1.25,2.79 0,0 -0.16,-2.3 -0.18,-4.06 l -0.06,-7.25 h 1.58 v 13.34 h -1.68 l -4.29,-8.17 c -0.62,-1.21 -1.25,-2.48 -1.52,-3.2 0.1,1.13 0.16,2.3 0.18,3.63 l 0.08,7.74 h -1.66 v -13.34 z"
       id="path3228" /><path
       d="m 433.28,261.07 c 2.32,0 3.57,1.23 4.21,2.18 0.84,1.25 1.21,2.81 1.21,4.95 0,2.57 -0.58,4.19 -1.95,5.44 -0.99,0.9 -2.01,1.29 -3.39,1.29 -1.64,0 -2.91,-0.66 -3.8,-1.7 -1.05,-1.21 -1.6,-3.02 -1.6,-5.3 0,-4.25 2.03,-6.86 5.32,-6.86 z m 0,1.28 c -1.25,0 -2.36,0.6 -2.87,1.56 -0.47,0.88 -0.68,2.03 -0.68,3.68 0,2.01 0.33,3.76 0.86,4.66 0.51,0.86 1.75,1.44 2.85,1.44 1.09,0 1.91,-0.39 2.5,-1.15 0.66,-0.84 0.97,-1.91 0.97,-4.11 0,-1.97 -0.19,-3.31 -0.64,-4.25 -0.47,-0.99 -1.45,-1.83 -2.99,-1.83 z"
       id="path3230" /><path
       d="m 442.27,261.3 h 1.6 v 12.03 h 5.28 l -0.21,1.35 h -6.67 V 261.3 z"
       id="path3232" /><path
       d="m 456.57,261.07 c 2.32,0 3.57,1.23 4.21,2.18 0.84,1.25 1.21,2.81 1.21,4.95 0,2.57 -0.58,4.19 -1.95,5.44 -0.99,0.9 -2.01,1.29 -3.39,1.29 -1.64,0 -2.91,-0.66 -3.8,-1.7 -1.05,-1.21 -1.6,-3.02 -1.6,-5.3 -0.01,-4.25 2.02,-6.86 5.32,-6.86 z m 0,1.28 c -1.25,0 -2.36,0.6 -2.87,1.56 -0.47,0.88 -0.68,2.03 -0.68,3.68 0,2.01 0.33,3.76 0.86,4.66 0.51,0.86 1.75,1.44 2.85,1.44 1.09,0 1.91,-0.39 2.5,-1.15 0.66,-0.84 0.98,-1.91 0.98,-4.11 0,-1.97 -0.2,-3.31 -0.64,-4.25 -0.49,-0.99 -1.46,-1.83 -3,-1.83 z"
       id="path3234" /><path
       d="m 474.08,262.51 -0.72,0.99 c -1.09,-0.74 -1.87,-1.03 -2.91,-1.03 -1.56,0 -2.79,0.72 -3.34,2.26 -0.35,0.99 -0.53,2.13 -0.53,3.39 0,1.75 0.33,3.18 0.94,4.06 0.6,0.88 1.97,1.42 3.24,1.42 0.84,0 1.56,-0.18 2.13,-0.53 V 269 h -2.69 l -0.31,-1.33 h 4.5 v 6.24 c -0.96,0.62 -2.4,1.01 -3.76,1.01 -1.68,0 -3.1,-0.58 -4.11,-1.68 -1.13,-1.23 -1.66,-2.89 -1.66,-5.19 0,-2.55 0.66,-4.39 2.07,-5.62 0.96,-0.86 2.11,-1.27 3.49,-1.27 1.41,0.02 2.64,0.47 3.66,1.35 z"
       id="path3236" /><path
       d="m 476.53,261.3 h 1.97 l 2.54,5.11 c 0.21,0.43 0.51,1.05 0.68,1.5 0.2,-0.45 0.45,-0.96 0.72,-1.5 l 2.57,-5.11 h 1.83 l -4.35,8.17 v 5.21 h -1.66 v -5.3 l -4.3,-8.08 z"
       id="path3238" /></g></svg>